<?xml version="1.0" encoding="UTF-8" standalone="no"?>
<svg
   xmlns="http://www.w3.org/2000/svg"
   version="1.0"
   width="655"
   height="655"
>
  <symbol id="logo" viewBox="0 0 625 625">
    <path
       d="m 312,0.53125 c -41,0 -82,8.10125 -119,23.78125 -38,15.6 -72.9875,38.69375 -101.6875,67.59375 -28.8,29.1 -52.025,63.09375 -67.625,101.09375 -15.65,38 -23.75,79 -23.75,119 0,41 8.1,82 23.75,120 15.6,38 38.825,72 67.625,101 28.7,29 63.6875,52 101.6875,68 37,15 78,23 119,23 41,0 82,-8 119,-23 38,-16 73,-39 102,-68 28,-29 52,-63 67,-101 16,-38 24,-79 24,-120 0,-40 -8,-81 -24,-119 C 585,155 561,121.00625 533,91.90625 504,63.00625 469,39.9125 431,24.3125 394,8.6325 353,0.53125 312,0.53125 z m 0,15.0625 c 39,0 78,7.69375 114,22.59375 35,14.9 68,36.9125 96,64.8125 27,27 49,60 64,96 15,36 23,75 23,113 0,39 -8,78 -23,114 -15,36 -37,69 -64,96 -28,28 -61,50 -96,65 -36,15 -75,22 -114,22 -39,0 -78,-7 -114,-22 C 162,572 129,550 102,522 74.5,495 52.49375,462 37.59375,426 22.79375,390 15,351 15,312 15,274 22.79375,235 37.59375,199 52.49375,163 74.5,130 102,103 129,75.1 162,53.0875 198,38.1875 234,23.2875 273,15.59375 312,15.59375 z M 289,76.5 287,83.09375 278,113 l -32,-1 -7,0 5,4 26,19 -10,29 -2,7 5,-4 25,-19 26,20 5,4 -2,-7 -10,-30 26,-18 6,-4 -7,0 -32,1 -9,-30.8125 -2,-6.6875 z m 0,14.5 8,26 0,1 2,0 26,-1 -22,15 -1,1 0,1 9,26 -21,-16 -2,-1 -1,1 -21,15 9,-24 0,-2 -1,-1 -21,-15 26,0 2,0 0,-1 8,-25 z m -146,43 c -3,1 3,7 4,8 0,0 13,14 15,16 10,12 86,77 128,362 2,16 3,17 3,19 1,2 1,4 2,4 0,1 1,1 1,1 0,0 17,4 34,0 0,0 1,0 1,0 1,-1 1,-1 1,-2 2,-20 29,-167 64,-234 10,-22 15,-25 27,-26 57,-5 90,-39 90,-97 0,-5 1,-17 3,-30 2,-12 8,-20 -4,-16 -14,5 -22,4 -45,5 -35,2 -103,30 -102,109 0,16 4,10 9,4 2,-3 5,-7 8,-11 1,-1 27,-38 50,-48 8,-4 10,-1 6,3 -45,47 -87,131 -111,222 -3,12 -13,42 -21,8 -4,-14 -19,-125 -69,-205 -35,-58 -86,-89 -86,-89 0,0 -5,-3 -7,-3 0,0 0,0 -1,0 z m -70.53125,232.1875 -25.375,30.3125 3.25,7.4375 36.75,-4.34375 -3.34375,-7.625 -23.125,3.90625 c -0.79312,0.15145 -1.59848,0.30911 -2.40625,0.46875 -0.78571,0.16803 -1.49341,0.32434 -2.125,0.46875 -0.74178,0.18498 -1.44927,0.36228 -2.125,0.53125 0.53741,-0.52653 1.09867,-1.08046 1.6875,-1.65625 0.49327,-0.50197 1.05999,-1.05565 1.65625,-1.65625 0.59634,-0.60068 1.15912,-1.21159 1.71875,-1.8125 L 75.8125,373.875 72.46875,366.1875 z m 476.90625,1.34375 -2.90625,7.53125 31.8125,15.75 2.90625,-7.53125 -31.8125,-15.75 z m -2.84375,8.78125 -3.5625,7.4375 16.3125,19.03125 c 0.57171,0.64196 1.13258,1.28679 1.71875,1.9375 0.57945,0.62563 1.12131,1.19004 1.59375,1.6875 0.56598,0.5754 1.10915,1.13239 1.625,1.65625 -0.69285,-0.18996 -1.42903,-0.38488 -2.1875,-0.59375 -0.64944,-0.16356 -1.37557,-0.36115 -2.15625,-0.5625 -0.78068,-0.2013 -1.55302,-0.39505 -2.3125,-0.5625 l -23,-4.84375 -3.5625,7.5625 36.625,5.8125 3.46875,-7.3125 -24.5625,-31.25 z M 88,400.28125 58.28125,420.34375 62,427.40625 91.75,407.3125 88,400.28125 z m 3.78125,8.1875 -20.6875,34.5625 4.28125,6.75 34.09375,-10.5625 -14.84375,15.375 c -1.73965,1.80028 -2.98215,3.65995 -3.75,5.5625 -0.75665,1.9162 -1.09915,3.83092 -1.03125,5.75 0.09115,1.92021 0.53999,3.84414 1.375,5.75 0.84708,1.89334 2.00291,3.72425 3.46875,5.53125 1.53248,1.88909 3.13674,3.43205 4.8125,4.59375 1.69894,1.16284 3.4211,1.86898 5.1875,2.15625 1.77843,0.27476 3.57248,0.0881 5.375,-0.59375 1.80248,-0.68182 3.59201,-1.93724 5.34375,-3.75 l 15.6875,-16.25 -4.90625,-6.0625 -15.375,15.90625 c -1.09938,1.13766 -2.18618,1.97213 -3.25,2.46875 -1.06388,0.49656 -2.08568,0.6897 -3.09375,0.625 -0.99701,-0.0511 -1.97517,-0.33377 -2.90625,-0.90625 -0.90796,-0.57132 -1.76294,-1.35815 -2.5625,-2.34375 -0.78846,-0.97194 -1.36706,-1.96834 -1.78125,-3 -0.40248,-1.04403 -0.6025,-2.11366 -0.5625,-3.1875 0.05211,-1.08635 0.34617,-2.17998 0.875,-3.28125 0.54092,-1.11379 1.3623,-2.23108 2.4375,-3.34375 L 115.5,444.125 l -4.90625,-6.0625 -0.0312,0.0312 -3.96875,-6.25 -22.21875,8.09375 c -0.7604,0.2946 -1.53867,0.56954 -2.3125,0.875 -0.75085,0.3097 -1.4291,0.61687 -2.03125,0.875 -0.70512,0.31838 -1.38902,0.61584 -2.03125,0.90625 0.45454,-0.61819 0.93926,-1.26122 1.4375,-1.9375 0.41458,-0.58589 0.87296,-1.23535 1.375,-1.9375 0.50194,-0.70214 1.00298,-1.39805 1.46875,-2.09375 l 13.90625,-21.1875 -4.40625,-6.96875 z m 438.3125,1.15625 -3.9375,6.875 29.15625,21.3125 3.9375,-6.875 -29.15625,-21.3125 z m -4.0625,8.09375 -4.5625,6.71875 13.375,21.75 c 0.47271,0.73752 0.95176,1.46995 1.4375,2.21875 0.48268,0.72283 0.91714,1.36061 1.3125,1.9375 0.47658,0.67083 0.94056,1.32666 1.375,1.9375 -0.65695,-0.31381 -1.37472,-0.65556 -2.09375,-1 -0.61788,-0.27985 -1.2892,-0.59642 -2.03125,-0.9375 -0.74205,-0.34102 -1.46154,-0.665 -2.1875,-0.96875 L 510.625,440.40625 506,447.1875 l 35.34375,12.4375 4.46875,-6.5625 -19.78125,-35.34375 z m -45.8125,58.25 -5.75,4.96875 12.65625,18.75 c 0.9073,1.34325 1.56098,2.66288 1.90625,3.90625 0.34522,1.24343 0.42595,2.40304 0.28125,3.53125 -0.13169,1.11704 -0.47689,2.19333 -1.0625,3.1875 -0.58257,0.96822 -1.34289,1.84867 -2.28125,2.65625 -0.92533,0.79643 -1.86715,1.37994 -2.8125,1.75 -0.95532,0.35536 -1.90062,0.45783 -2.84375,0.3125 -0.95312,-0.16005 -1.88767,-0.58331 -2.8125,-1.28125 -0.93482,-0.71266 -1.86262,-1.71752 -2.75,-3.03125 l -12.8125,-19 -5.78125,4.9375 13.1875,19.53125 c 1.43576,2.12555 2.95213,3.70842 4.5625,4.75 1.62341,1.03037 3.27113,1.58465 4.96875,1.6875 1.70068,0.0769 3.43482,-0.26972 5.1875,-1.03125 1.74269,-0.77624 3.46714,-1.8944 5.1875,-3.375 1.79853,-1.54787 3.29897,-3.22298 4.46875,-5 1.1728,-1.80297 1.96818,-3.66431 2.375,-5.625 0.39676,-1.97543 0.3505,-4.03316 -0.0937,-6.125 -0.44434,-2.09179 -1.3668,-4.20342 -2.8125,-6.34375 L 480.21875,475.96875 z M 161.25,491.6875 l -18.375,33.15625 6.15625,4.375 6.6875,-12.09375 5.375,-0.53125 2.125,22.71875 7.25,5.15625 -2.96875,-28.78125 20.34375,-5.09375 -7.1875,-5.09375 -21.59375,5.59375 8.34375,-15.03125 -6.15625,-4.375 z M 451,501.59375 c -1.02624,0.0626 -2.13174,0.30662 -3.3125,0.75 -1.56857,0.5659 -3.33069,1.52009 -5.28125,2.8125 -1.7244,1.14265 -3.22753,2.3709 -4.5,3.6875 -1.27246,1.31668 -2.24627,2.6859 -2.90625,4.15625 -0.65416,1.44506 -0.969,2.96924 -0.9375,4.5625 0.0315,1.59332 0.49977,3.22635 1.375,4.90625 0.64187,1.23196 1.31882,2.23478 2.0625,2.96875 0.75783,0.72468 1.56725,1.25549 2.40625,1.625 0.8448,0.34419 1.71895,0.5387 2.625,0.5625 0.90606,0.0238 1.84294,-0.049 2.78125,-0.21875 0.95245,-0.1791 1.90189,-0.42802 2.875,-0.75 0.97309,-0.32192 1.94148,-0.66204 2.90625,-1 1.18512,-0.46242 2.32884,-0.89098 3.4375,-1.28125 1.10863,-0.39022 2.14456,-0.63758 3.09375,-0.75 0.94917,-0.11238 1.80176,-0.011 2.5625,0.28125 0.76071,0.29229 1.39152,0.88457 1.875,1.8125 0.80856,1.55195 0.8411,3.0773 0.0937,4.5625 -0.74153,1.45987 -2.19235,2.90768 -4.3125,4.3125 -1.21555,0.80552 -2.29402,1.35621 -3.28125,1.6875 -0.98144,0.30596 -1.90585,0.439 -2.71875,0.375 -0.80713,-0.0893 -1.53732,-0.34143 -2.1875,-0.75 -0.65019,-0.40854 -1.25111,-0.92291 -1.8125,-1.5625 l -5.4375,5.125 c 1.08038,1.30726 2.25843,2.33474 3.53125,3.0625 1.27863,0.7024 2.64233,1.08405 4.125,1.15625 1.4968,0.0628 3.12296,-0.21035 4.84375,-0.8125 1.72077,-0.60213 3.55242,-1.56382 5.53125,-2.875 2.23323,-1.47977 4.04498,-2.98358 5.40625,-4.53125 1.36704,-1.57301 2.34121,-3.17034 2.90625,-4.75 0.5791,-1.589 0.78046,-3.17425 0.625,-4.75 -0.16384,-1.59171 -0.63729,-3.15154 -1.4375,-4.6875 -0.68354,-1.31191 -1.43892,-2.33982 -2.25,-3.09375 -0.79699,-0.76325 -1.63573,-1.2929 -2.53125,-1.625 -0.88976,-0.35741 -1.84159,-0.5605 -2.8125,-0.5625 -0.97095,-0.002 -1.95977,0.1272 -2.96875,0.34375 -1.00898,0.21662 -2.01873,0.50626 -3.0625,0.875 -1.05212,0.35282 -2.10667,0.73091 -3.15625,1.125 -1.19346,0.44646 -2.29699,0.83748 -3.3125,1.1875 -1.00969,0.32471 -1.93055,0.52435 -2.75,0.59375 -0.82776,0.0535 -1.55905,-0.0811 -2.1875,-0.375 -0.63677,-0.3098 -1.1603,-0.88677 -1.59375,-1.71875 -0.28341,-0.54395 -0.46495,-1.11699 -0.53125,-1.71875 -0.0747,-0.6177 0.0177,-1.22602 0.25,-1.875 0.24645,-0.65828 0.66877,-1.34557 1.28125,-2.03125 0.6183,-0.71097 1.46002,-1.4257 2.5625,-2.15625 1.78095,-1.18004 3.35705,-1.73343 4.6875,-1.625 1.34459,0.0991 2.55548,0.78141 3.625,2.03125 l 5.5625,-4.9375 c -0.99632,-1.2553 -2.05486,-2.24677 -3.15625,-2.9375 -1.09562,-0.71601 -2.27997,-1.111 -3.59375,-1.1875 -0.32491,-0.0214 -0.65792,-0.0209 -1,0 z M 198.15625,516 l -26.09375,29.375 6.59375,3.5 6.53125,-7.59375 11.96875,6.34375 -0.9375,10.53125 6.5,3.46875 3.21875,-41.53125 L 198.15625,516 z M 419,519.5625 l -7.84375,3.875 2.375,41.625 6.65625,-3.28125 -0.75,-10.5625 12.09375,-5.96875 6.375,7.8125 6.59375,-3.25 -25.5,-30.25 z M 199.8125,523.5 c 0.001,0.0415 -0.0368,0.23553 -0.0937,0.59375 -0.0423,0.36615 -0.0988,0.83978 -0.1875,1.40625 -0.0669,0.5576 -0.1644,1.1842 -0.25,1.875 -0.0638,0.68192 -0.1237,1.38062 -0.1875,2.0625 L 198,541.25 188.96875,536.46875 196.25,527.9375 c 0.42082,-0.49286 0.84401,-0.99922 1.25,-1.5 0.42774,-0.50963 0.80517,-0.98254 1.125,-1.40625 0.33463,-0.41579 0.60654,-0.75174 0.8125,-1.03125 0.2059,-0.27947 0.3393,-0.4575 0.375,-0.5 z m 217.40625,3.53125 c 0.0282,0.0266 0.14318,0.18288 0.34375,0.46875 0.21558,0.27854 0.49425,0.64314 0.8125,1.09375 0.32667,0.42629 0.69081,0.90712 1.09375,1.4375 0.41135,0.50605 0.83863,1.02527 1.25,1.53125 l 7.125,8.78125 -9.125,4.5 -0.875,-11.875 c -0.0508,-0.68369 -0.1217,-1.3549 -0.1875,-2.03125 -0.0574,-0.70067 -0.1162,-1.35409 -0.1875,-1.90625 -0.0563,-0.55949 -0.10585,-1.01503 -0.15625,-1.375 -0.0504,-0.3599 -0.0888,-0.5665 -0.0937,-0.625 z m -192.15625,1.75 -1.8125,6.09375 6.5625,2.5 -5.84375,19.46875 c -0.57851,1.92958 -1.38098,3.27223 -2.40625,4.03125 -1.00978,0.76503 -2.19466,0.87163 -3.5625,0.34375 -0.60623,-0.23393 -1.13867,-0.54658 -1.59375,-0.9375 -0.44985,-0.40845 -0.8211,-0.9055 -1.09375,-1.5 -0.25188,-0.60604 -0.39935,-1.31536 -0.46875,-2.125 -0.0642,-0.82718 -0.0299,-1.78006 0.125,-2.875 l -7.15625,-1.5 c -0.26232,2.03201 -0.29507,3.82162 -0.0937,5.40625 0.22205,1.57312 0.67926,2.9796 1.375,4.1875 0.69574,1.2079 1.63806,2.24122 2.8125,3.125 1.17443,0.8838 2.5711,1.64541 4.21875,2.28125 1.78753,0.68982 3.46384,1.0335 5,1 1.55693,-0.045 2.9393,-0.43243 4.1875,-1.125 1.26895,-0.70414 2.37834,-1.70863 3.3125,-3.03125 0.93938,-1.34016 1.68725,-2.9668 2.25,-4.84375 l 7.59375,-25.3125 -13.40625,-5.1875 z m 157.6875,5.90625 -6.9375,2.40625 10.28125,37.46875 L 410.78125,566 409.125,559.9375 391.34375,566.09375 382.75,534.6875 z"

       fill="#07752c" />
  </symbol>
  <rect x="0" y="0" width="655" height="655" fill="white" />
  <use href="#logo" x="15" y="15" width="625" height="625" />
</svg>
